<?xml version="1.0" standalone="no"?><!DOCTYPE svg PUBLIC "-//W3C//DTD SVG 1.1//EN" "http://www.w3.org/Graphics/SVG/1.1/DTD/svg11.dtd"><svg t="1644403637523" class="icon" viewBox="0 0 1024 1024" version="1.1" xmlns="http://www.w3.org/2000/svg" p-id="9701" xmlns:xlink="http://www.w3.org/1999/xlink" width="200" height="200"><defs><style type="text/css"></style></defs><path d="M981.336322 426.666983a42.666998 42.666998 0 0 1 42.409998 37.673999l0.256 4.992v341.333986a42.666998 42.666998 0 0 1-23.167999 37.972999l-4.906 2.133-469.119982 170.581993a42.324998 42.324998 0 0 1-5.546999 1.621l5.332999-1.536a42.666998 42.666998 0 0 1-14.591999 2.56l-2.133-0.043a42.666998 42.666998 0 0 1-1.45-0.128L512.00134 1023.99996c-2.602 0-5.162-0.256-7.68-0.683l-1.152-0.256-0.426-0.085a42.324998 42.324998 0 0 1-5.546999-1.621L28.161359 850.772967A42.666998 42.666998 0 0 1 0.42936 815.999968L0.00136 810.666968V469.332982a42.666998 42.666998 0 0 1 85.077997-4.992l0.256 4.992v311.423988l383.999985 139.690994V682.666973a42.666998 42.666998 0 0 1 85.076996-4.991999l0.256 4.991999v237.737991l383.999985-139.647994V469.332982a42.666998 42.666998 0 0 1 37.716999-42.367999l4.95-0.298zM512.00134 298.666988c80.639997 0 149.333994 54.953998 149.333994 127.999995s-68.693997 127.999995-149.333994 127.999995-149.332994-54.954998-149.332994-127.999995 68.692997-127.999995 149.332994-127.999995z m0 85.332997c-37.119999 0-63.999998 21.460999-63.999997 42.666998s26.879999 42.665998 63.999997 42.665999c37.205999 0 63.999998-21.460999 63.999998-42.665999S549.208339 383.999985 512.00234 383.999985z m319.999988-255.99999c80.639997 0 149.333994 54.954998 149.333994 127.999995S912.641324 383.999985 832.001328 383.999985s-149.332994-54.954998-149.332995-127.999995S751.361331 127.999995 832.001328 127.999995z m-639.999975 0c80.639997 0 149.333994 54.954998 149.333994 127.999995S272.641349 383.999985 192.001353 383.999985 42.669358 329.044987 42.669358 255.99999 111.361356 127.999995 192.001353 127.999995z m639.999975 85.332997c-37.119999 0-63.999998 21.461999-63.999998 42.666998s26.879999 42.666998 63.999998 42.666998c37.205999 0 63.999998-21.461999 63.999997-42.666998s-26.793999-42.666998-63.999997-42.666998z m-639.999975 0c-37.119999 0-63.999998 21.461999-63.999998 42.666998s26.879999 42.666998 63.999998 42.666998c37.205999 0 63.999998-21.461999 63.999997-42.666998s-26.793999-42.666998-63.999997-42.666998zM512.00234 0c80.639997 0 149.333994 54.954998 149.333994 127.999995S592.641337 255.99999 512.00134 255.99999s-149.332994-54.954998-149.332994-127.999995S431.361343 0 512.00134 0z m0 85.332997c-37.119999 0-63.999998 21.461999-63.999998 42.666998s26.879999 42.666998 63.999998 42.666998c37.205999 0 63.999998-21.461999 63.999997-42.666998s-26.793999-42.666998-63.999997-42.666998z" p-id="9702"></path></svg>